<svg width="1200" height="800" viewBox="0 0 1200 800" fill="none" xmlns="http://www.w3.org/2000/svg">
  <rect width="1200" height="800" rx="48" fill="#F1F5FF"/>
  <rect x="60" y="60" width="1080" height="680" rx="40" fill="url(#bg)"/>
  <circle cx="966" cy="172" r="88" fill="#2F6FED" fill-opacity="0.18"/>
  <circle cx="222" cy="186" r="128" fill="#79A7FF" fill-opacity="0.18"/>
  <rect x="164" y="206" width="302" height="366" rx="32" fill="#FFFFFF" fill-opacity="0.9"/>
  <rect x="216" y="258" width="198" height="22" rx="11" fill="#A8C5FF"/>
  <rect x="216" y="302" width="164" height="22" rx="11" fill="#D3E1FF"/>
  <rect x="216" y="356" width="198" height="152" rx="24" fill="#EFF4FF"/>
  <path d="M120 612C252 534 366 520 498 542C636 566 744 638 888 638C970 638 1038 614 1080 592V700H120V612Z" fill="#2F6FED"/>
  <path d="M120 570C262 480 374 466 518 496C650 524 744 590 888 590C974 590 1042 564 1080 544V700H120V570Z" fill="#BFD4FF"/>
  <rect x="528" y="242" width="432" height="72" rx="22" fill="#FFFFFF" fill-opacity="0.88"/>
  <rect x="528" y="346" width="350" height="26" rx="13" fill="#FFFFFF" fill-opacity="0.72"/>
  <rect x="528" y="392" width="396" height="26" rx="13" fill="#FFFFFF" fill-opacity="0.6"/>
  <rect x="528" y="458" width="212" height="54" rx="18" fill="#2F6FED"/>
  <text x="528" y="166" fill="#1E4EAD" font-family="Arial, Helvetica, sans-serif" font-size="42" font-weight="700">Rencontre pro</text>
  <text x="528" y="220" fill="#58719A" font-family="Arial, Helvetica, sans-serif" font-size="24">Feed, evenements et reseau local a Marseille.</text>
  <defs>
    <linearGradient id="bg" x1="60" y1="60" x2="1140" y2="740" gradientUnits="userSpaceOnUse">
      <stop stop-color="#F9FBFF"/>
      <stop offset="1" stop-color="#E5EEFF"/>
    </linearGradient>
  </defs>
</svg>
