<svg width="1200" height="800" viewBox="0 0 1200 800" fill="none" xmlns="http://www.w3.org/2000/svg">
  <rect width="1200" height="800" rx="48" fill="#EEF7F1"/>
  <rect x="60" y="60" width="1080" height="680" rx="40" fill="url(#bg)"/>
  <circle cx="938" cy="176" r="96" fill="#2D9F69" fill-opacity="0.16"/>
  <circle cx="238" cy="190" r="128" fill="#84D7AA" fill-opacity="0.16"/>
  <path d="M136 584C230 528 332 494 446 498C582 502 700 568 822 566C920 564 1012 532 1078 494V700H136V584Z" fill="#9EDDB9"/>
  <path d="M136 624C254 556 354 536 468 548C608 562 720 632 852 632C936 632 1014 608 1078 580V700H136V624Z" fill="#2D9F69"/>
  <path d="M240 486C312 364 378 312 450 290C550 260 652 284 742 352C804 398 852 454 916 500" stroke="#FFFFFF" stroke-width="22" stroke-linecap="round"/>
  <circle cx="480" cy="278" r="34" fill="#2D9F69"/>
  <path d="M500 316L548 388L618 348" stroke="#2D9F69" stroke-width="28" stroke-linecap="round" stroke-linejoin="round"/>
  <path d="M548 388L506 476L586 534" stroke="#2D9F69" stroke-width="28" stroke-linecap="round" stroke-linejoin="round"/>
  <path d="M544 388L632 430L700 386" stroke="#2D9F69" stroke-width="28" stroke-linecap="round" stroke-linejoin="round"/>
  <text x="164" y="162" fill="#18794A" font-family="Arial, Helvetica, sans-serif" font-size="42" font-weight="700">Running a Marseille</text>
  <text x="164" y="216" fill="#557867" font-family="Arial, Helvetica, sans-serif" font-size="24">Session collective, allure cool, energie propre.</text>
  <defs>
    <linearGradient id="bg" x1="60" y1="60" x2="1140" y2="740" gradientUnits="userSpaceOnUse">
      <stop stop-color="#F9FFFB"/>
      <stop offset="1" stop-color="#DBF0E4"/>
    </linearGradient>
  </defs>
</svg>
